# xmcd
#
# Track frame offsets:
#	150
#	21077
#	33220
#	46827
#	63327
#	79292
#	96197
#	109570
#	128922
#	141395
#	155475
#	168010
#
# Disc length: 2471 seconds
#
# Revision: 1
# Processed by: cddbd v1.5.2PL0 Copyright (c) Steve Scherf et al.
# Submitted via: audiograbber 1.83.01
#
DISCID=9309a50c
DTITLE=billy james - legends never die
DYEAR=1995
DGENRE=Country
TTITLE0=legends never die
TTITLE1=angel don't cry
TTITLE2=i'm battie over hattie
TTITLE3=i know that silence
TTITLE4=the aftershock is shockin
TTITLE5=angel of eye
TTITLE6=you
TTITLE7=two shades of blue
TTITLE8=play it hot
TTITLE9=i may be sorry tomorrow
TTITLE10=one perfect man
TTITLE11=someone for each of us
EXTD=
EXTT0=
EXTT1=
EXTT2=
EXTT3=
EXTT4=
EXTT5=
EXTT6=
EXTT7=
EXTT8=
EXTT9=
EXTT10=
EXTT11=
PLAYORDER=
